<?xml version="1.0" standalone="no"?>
<!DOCTYPE svg PUBLIC "-//W3C//DTD SVG 20010904//EN"
 "http://www.w3.org/TR/2001/REC-SVG-20010904/DTD/svg10.dtd">
<svg version="1.0" xmlns="http://www.w3.org/2000/svg"
 width="2560.000000pt" height="1440.000000pt" viewBox="0 0 2560.000000 1440.000000"
 preserveAspectRatio="xMidYMid meet">
<metadata>
Created by potrace 1.14, written by Peter Selinger 2001-2017
</metadata>
<g transform="translate(0.000000,1440.000000) scale(0.100000,-0.100000)"
fill="#000000" stroke="none">
<path d="M0 9443 c0 -3855 3 -4954 12 -4945 25 25 39 4 18 -28 -9 -13 -11 -13
-20 0 -8 12 -10 11 -10 -6 0 -12 7 -27 15 -34 13 -10 15 -9 15 9 0 11 6 21 14
21 8 0 20 13 27 29 15 34 69 66 69 42 0 -5 -9 -13 -20 -16 -25 -8 -26 -25 -2
-25 23 0 42 19 42 41 0 15 5 16 35 8 23 -7 41 -6 54 1 11 5 31 10 45 10 14 0
34 10 45 22 18 19 21 19 27 5 9 -24 39 -21 51 6 10 21 18 23 84 25 86 3 109 8
109 27 0 14 38 27 54 18 5 -4 1 -9 -10 -13 -15 -6 -12 -9 19 -19 33 -11 41
-11 65 5 46 31 94 56 87 45 -3 -6 -2 -11 4 -11 16 0 25 -42 10 -50 -10 -7 -10
-12 1 -25 21 -25 59 -37 78 -25 14 8 14 10 2 9 -49 -5 -60 1 -60 30 0 16 -4
41 -10 55 -7 20 -6 26 4 26 8 0 20 2 28 3 7 2 10 2 5 0 -4 -3 -7 -13 -7 -24 0
-14 7 -19 25 -19 20 0 25 5 26 28 2 26 2 26 6 2 3 -14 9 -29 14 -34 12 -13 12
-29 -1 -21 -5 3 -10 -1 -10 -10 0 -9 4 -14 9 -11 5 4 11 3 14 -1 2 -5 2 -2 0
5 -3 16 37 6 50 -12 6 -7 7 -4 3 7 -3 10 -6 21 -6 23 0 2 -9 4 -20 4 -13 0
-20 7 -20 19 0 11 -2 25 -3 33 -2 7 -2 10 0 6 3 -5 16 -8 29 -8 15 0 24 -6 24
-15 0 -10 9 -15 28 -14 15 1 20 3 10 6 -29 8 -34 53 -6 53 7 0 22 10 35 22 22
20 23 21 23 2 0 -15 2 -16 9 -5 10 16 81 7 81 -10 0 -6 5 -7 10 -4 6 4 8 11 5
16 -9 13 11 18 92 22 47 2 79 9 90 19 42 36 183 57 183 27 0 -22 29 -6 39 22
12 34 36 35 35 0 0 -11 1 -21 3 -21 2 0 22 13 45 30 46 34 58 37 58 14 0 -9 7
-14 18 -12 9 2 17 10 17 18 0 9 15 19 36 24 31 7 39 5 64 -18 31 -28 56 -36
34 -10 -11 14 -11 18 4 29 9 7 17 17 17 24 0 6 5 11 10 11 13 0 13 -17 0 -25
-13 -8 -13 -35 0 -35 6 0 10 7 10 15 0 9 9 15 25 15 19 0 25 -5 25 -21 0 -11
4 -17 10 -14 6 4 10 16 8 28 -3 19 1 22 31 20 19 -1 40 5 45 12 6 7 37 18 69
25 31 6 57 16 57 21 0 6 8 6 20 -1 32 -17 88 -15 109 4 15 14 38 18 109 18 87
0 90 1 111 29 21 28 51 39 51 19 0 -16 78 -12 116 6 19 9 32 20 29 24 -3 5 -1
11 5 15 5 3 10 1 10 -4 0 -6 13 -11 28 -11 15 0 33 -5 40 -12 9 -9 12 -9 12 0
0 7 8 12 18 12 10 0 44 14 75 31 56 30 57 30 78 11 21 -20 21 -20 67 0 58 25
60 27 42 38 -13 8 -12 10 2 10 9 0 23 -7 32 -15 9 -9 33 -15 65 -15 40 0 53 4
66 23 13 18 17 19 24 8 7 -11 23 -12 73 -6 152 18 153 19 153 40 0 14 6 19 20
17 11 -2 35 -6 53 -9 17 -3 32 -10 33 -17 0 -6 4 -1 9 12 9 22 29 25 141 26
10 0 15 5 12 12 -5 13 36 23 128 29 138 11 169 20 169 51 0 24 38 16 42 -8 4
-29 28 -35 35 -9 6 24 28 32 97 37 102 7 172 16 211 29 22 7 73 16 113 20 39
4 72 11 72 16 0 12 37 11 45 -1 10 -16 23 -12 21 8 -1 14 6 16 47 14 26 -2 47
0 47 5 0 4 24 9 52 11 36 2 58 9 71 22 12 13 31 20 57 20 21 0 42 5 45 10 9
15 25 12 25 -5 0 -8 -6 -15 -12 -15 -7 0 -5 -5 5 -11 23 -13 39 -2 32 22 -5
16 -1 19 24 19 21 0 31 -5 31 -15 0 -15 46 -32 57 -21 4 3 -1 6 -11 6 -14 0
-15 3 -5 21 10 20 17 21 84 16 64 -5 76 -3 91 14 13 15 19 17 26 7 6 -10 8 -8
8 5 0 18 34 24 45 7 8 -13 72 -13 80 0 3 6 29 10 56 10 46 0 50 2 44 20 -8 24
4 25 60 5 35 -13 42 -12 55 1 13 13 12 15 -8 20 -12 4 -22 10 -22 15 0 5 7 6
15 3 22 -9 63 4 85 26 15 15 20 16 20 6 0 -8 -9 -18 -20 -21 -11 -3 -20 -11
-20 -16 0 -12 17 -12 25 1 3 5 20 8 38 6 18 -2 35 1 39 7 5 9 11 7 20 -4 12
-15 48 -33 48 -24 0 2 -10 13 -22 25 l-22 20 23 0 c20 0 21 2 11 15 -7 8 -20
15 -29 15 -21 0 -26 66 -5 74 16 6 29 -17 19 -34 -9 -15 13 -40 36 -40 11 0
19 -4 19 -9 0 -13 32 -23 39 -12 4 5 36 12 71 14 84 6 110 15 110 38 0 10 5
21 12 25 7 5 9 2 6 -7 -7 -18 27 -67 39 -56 4 5 1 12 -6 16 -10 7 -11 13 -1
30 16 31 42 22 54 -17 10 -35 32 -46 23 -11 -4 14 -2 19 7 16 9 -4 13 3 12 21
-1 30 19 41 27 13 4 -16 14 -19 63 -20 40 0 64 5 76 16 16 14 18 14 24 -1 8
-20 23 -21 38 -2 14 19 98 25 104 8 7 -22 20 -13 21 16 1 52 3 67 8 55 6 -15
43 -17 43 -3 0 6 5 10 11 10 7 0 9 -12 5 -34 -5 -25 -3 -35 9 -40 9 -3 15 0
15 8 0 21 34 46 63 46 15 0 27 -6 27 -12 0 -8 3 -9 8 -3 4 6 23 12 42 13 19 2
55 8 80 13 31 7 46 7 48 -1 6 -16 22 -1 22 21 0 23 22 25 40 4 14 -17 48 -19
70 -5 12 7 8 11 -17 16 -46 9 -41 21 11 25 25 2 42 0 39 -5 -4 -5 29 -7 77 -3
67 4 87 9 99 25 13 16 28 20 72 20 43 -1 65 5 87 21 34 24 52 27 52 8 0 -9 11
-12 35 -9 21 3 35 10 35 18 0 9 11 14 29 14 16 0 31 6 33 12 3 9 10 7 23 -6
18 -17 19 -17 32 8 17 33 32 34 25 1 -5 -27 12 -35 21 -11 3 8 23 18 44 22 21
3 43 13 50 21 12 15 77 14 102 -2 10 -5 21 -1 34 16 13 16 21 20 24 12 5 -15
71 -17 93 -3 10 6 11 10 3 10 -7 0 -13 6 -13 14 0 9 7 12 20 9 11 -3 20 -9 20
-14 0 -15 37 -10 51 7 9 12 24 15 51 11 25 -3 41 0 49 9 7 9 17 11 27 5 12 -7
22 -3 39 15 21 22 61 35 49 15 -3 -5 1 -12 9 -15 9 -3 18 1 21 9 4 10 21 15
53 15 26 0 51 4 56 9 6 5 44 14 85 20 41 5 104 17 140 26 36 9 86 18 113 22
26 3 47 8 47 12 0 4 11 8 25 9 14 1 25 -3 25 -8 0 -14 27 -12 41 3 9 10 18 7
40 -14 29 -27 72 -38 149 -39 32 -1 61 -10 100 -33 51 -30 59 -40 102 -127 66
-132 73 -173 52 -312 -12 -87 -14 -136 -8 -213 12 -145 11 -387 -4 -837 -10
-307 -18 -417 -32 -485 -57 -273 -93 -431 -105 -453 -28 -53 -51 -65 -139 -67
-568 -17 -679 -25 -936 -68 -196 -32 -186 -31 -860 -70 -327 -20 -669 -44
-760 -55 -91 -11 -327 -29 -525 -40 -431 -24 -631 -37 -745 -50 -47 -6 -346
-21 -665 -35 -743 -32 -888 -41 -1625 -110 -146 -14 -344 -32 -440 -40 -96 -9
-250 -24 -341 -35 -91 -11 -273 -28 -405 -39 -131 -11 -284 -27 -340 -35 -168
-26 -355 -36 -654 -36 -186 0 -330 -6 -415 -15 -231 -27 -544 -46 -565 -35
-10 5 -23 10 -29 10 -8 0 -11 -436 -11 -1470 l0 -1470 12800 0 12800 0 0 1575
0 1575 -72 -2 c-193 -6 -1037 16 -1310 33 -168 10 -387 19 -485 19 -99 0 -278
7 -399 15 -120 8 -370 21 -554 30 -184 8 -434 22 -555 30 -121 8 -310 19 -420
25 -110 6 -355 19 -545 30 -190 11 -469 24 -621 30 -152 6 -422 19 -600 30
-192 12 -444 20 -619 20 -165 0 -374 7 -475 15 -128 10 -342 15 -737 15 -465
0 -596 3 -800 20 -134 11 -257 22 -273 25 -45 8 -385 43 -580 60 -143 13 -245
14 -655 5 -267 -5 -740 -10 -1052 -10 l-568 0 0 31 c0 17 -12 77 -27 132 -28
107 -27 162 2 191 8 8 15 20 15 26 0 7 9 2 20 -11 l20 -24 18 21 c10 12 24 40
31 62 12 37 12 46 -2 79 -9 21 -24 101 -32 178 -22 189 -34 226 -100 310 -30
39 -67 93 -81 122 -40 81 -80 103 -138 79 -44 -18 -55 -36 -69 -106 -7 -34
-18 -64 -24 -68 -15 -10 -27 -58 -19 -79 6 -14 8 -14 21 3 8 10 15 15 15 10 0
-5 -7 -18 -17 -28 -14 -16 -14 -20 -1 -35 13 -16 13 -32 3 -123 -8 -70 -9
-109 -3 -117 6 -7 14 -61 18 -119 8 -112 21 -143 45 -111 10 14 12 41 8 105
-3 52 -1 98 6 115 21 54 31 29 31 -80 0 -119 16 -281 29 -297 5 -6 11 -63 13
-126 l5 -115 -1821 1 c-1002 0 -1843 4 -1871 8 -63 10 -100 29 -122 63 -16 25
-19 79 -27 598 -5 313 -8 779 -7 1035 3 512 6 558 66 814 33 141 58 293 52
318 -1 6 6 12 16 13 9 2 17 -2 18 -8 1 -7 5 -1 9 13 l8 25 1 -25 c1 -14 4 -20
9 -14 14 22 53 35 83 29 21 -5 29 -3 29 7 0 26 17 43 32 31 16 -14 91 -13 100
1 4 6 12 5 21 -3 10 -8 17 -9 22 -1 3 5 17 10 31 10 13 0 24 6 24 13 0 20 48
39 68 27 10 -5 12 -10 5 -10 -7 0 -13 -9 -13 -20 0 -21 7 -25 28 -12 7 5 10
16 7 24 -7 19 16 30 36 17 8 -5 23 -8 34 -8 11 0 15 3 8 6 -10 3 -10 9 0 24
15 24 37 25 37 2 0 -15 2 -16 9 -3 6 8 8 17 6 21 -3 3 13 6 35 5 31 0 40 -5
40 -18 0 -22 33 -24 50 -3 7 8 28 15 47 15 19 0 32 4 29 9 -3 5 16 11 42 15
40 6 66 10 92 15 3 1 -1 5 -9 10 -11 7 -9 10 8 16 12 4 28 2 36 -5 10 -8 22
-7 49 4 29 12 48 13 97 5 34 -5 64 -7 67 -4 3 3 -3 5 -14 5 -17 1 8 12 91 42
37 13 144 18 151 6 7 -12 64 -10 64 2 0 6 -4 10 -10 10 -5 0 -10 7 -10 15 0 8
5 15 10 15 6 0 10 -7 10 -15 0 -11 11 -15 40 -15 22 0 40 5 40 10 0 6 15 10
33 10 24 0 28 3 17 10 -13 9 -13 10 1 10 8 0 20 -5 26 -11 6 -6 24 -8 41 -4
23 5 31 13 36 36 6 30 26 32 26 3 0 -20 37 -18 49 4 6 9 11 13 11 7 0 -12 49
-13 67 -2 7 4 24 5 38 1 50 -13 103 21 63 40 -7 4 -2 4 12 1 14 -2 33 -5 43
-5 9 0 17 -7 17 -15 0 -20 19 -19 26 0 4 10 13 13 26 9 11 -3 36 4 60 16 33
17 46 19 70 11 36 -13 54 -5 37 15 -9 11 -8 14 5 14 9 0 16 -5 16 -11 0 -8 5
-8 15 1 12 10 13 16 4 26 -9 11 -8 14 5 14 9 0 16 -7 16 -15 0 -24 41 -36 67
-19 12 8 37 14 54 14 51 0 107 21 112 41 5 20 47 27 47 9 0 -20 21 -9 30 16 8
21 14 24 33 18 31 -10 161 -6 192 6 15 6 42 10 61 10 19 0 34 5 34 10 0 6 23
10 51 10 41 0 54 5 69 23 10 12 22 18 26 14 5 -4 2 -12 -6 -18 -13 -8 -13 -10
0 -19 11 -7 18 -5 26 5 15 21 23 19 34 -7 l9 -23 0 24 c1 22 4 23 39 18 31 -4
41 -1 51 15 8 12 18 17 31 13 10 -3 21 -1 24 4 4 6 13 8 21 5 7 -3 24 1 37 9
13 8 46 15 73 16 146 2 165 4 165 17 0 24 35 35 58 18 19 -13 24 -13 47 2 18
12 38 15 71 11 43 -4 46 -3 56 24 12 34 24 37 31 8 5 -18 8 -19 20 -8 8 8 14
18 14 23 -1 6 7 12 17 14 14 3 17 0 13 -11 -3 -9 1 -18 9 -21 23 -9 24 -8 24
19 0 30 16 33 23 5 6 -22 37 -28 37 -7 0 7 9 20 19 29 17 15 21 15 32 2 11
-14 14 -13 21 0 11 19 45 21 50 4 4 -10 18 -10 68 0 45 10 65 10 70 3 4 -7 15
-2 30 14 21 22 30 25 63 19 32 -5 41 -3 53 15 12 17 19 19 35 10 11 -6 28 -7
37 -3 9 4 20 6 24 6 4 -1 27 6 50 15 30 12 43 13 46 5 5 -16 30 -15 47 2 8 7
45 16 84 20 39 4 77 14 85 22 10 9 25 12 45 8 17 -4 37 -2 44 4 7 6 36 14 65
18 28 3 50 9 48 13 -2 3 20 6 49 6 29 0 51 -3 49 -6 -2 -3 9 -4 24 -1 15 3 21
7 15 9 -7 3 -13 9 -13 14 0 5 11 4 25 -1 16 -6 26 -6 30 1 4 5 16 7 26 4 11
-4 35 0 52 8 20 9 54 14 90 12 57 -2 82 9 56 27 -10 6 -3 8 21 7 48 -3 127 10
174 27 33 13 41 13 60 0 20 -12 24 -12 32 1 6 10 24 15 49 14 22 0 62 2 88 5
39 5 48 9 44 23 -3 12 2 16 19 16 13 -1 26 -3 28 -6 10 -10 106 4 106 16 0 8
29 16 85 23 47 6 95 17 107 24 13 7 49 11 81 10 37 -1 56 2 52 8 -10 16 22 12
39 -5 21 -22 21 -22 40 -6 15 13 19 13 26 1 11 -18 60 2 60 25 0 12 6 15 19
10 12 -4 23 0 29 10 6 12 29 18 88 21 43 3 89 10 101 16 12 6 32 8 44 5 12 -3
31 -2 41 4 12 7 25 6 39 -2 15 -8 19 -8 15 0 -4 6 0 11 9 11 9 0 19 9 22 20 7
27 20 25 27 -5 6 -22 9 -23 26 -13 13 8 18 19 14 30 -3 10 -1 18 4 18 6 0 13
-12 16 -26 8 -29 33 -27 28 2 -2 16 -1 17 8 4 9 -13 12 -13 24 3 16 21 56 15
56 -8 0 -9 6 -12 15 -9 8 4 15 12 15 20 0 7 9 18 19 24 26 13 31 13 31 -5 0
-18 -1 -18 43 0 20 8 47 15 61 15 13 0 26 5 28 11 2 7 33 13 72 14 44 2 74 9
85 19 20 18 44 20 71 6 15 -8 20 -6 25 10 3 11 14 20 23 20 15 0 15 -2 2 -10
-12 -8 -9 -10 11 -10 15 0 32 7 39 15 8 10 17 12 24 6 14 -11 86 -19 86 -9 0
4 -19 16 -42 26 -24 11 -70 40 -102 66 -33 25 -63 46 -67 46 -8 0 -20 42 -14
48 2 2 28 -11 57 -30 58 -38 120 -69 126 -63 2 2 1 12 -2 23 -6 18 -88 62
-115 62 -6 0 -11 5 -11 10 0 12 107 11 133 -2 12 -6 19 -5 22 4 4 10 28 14 85
14 63 0 84 4 98 17 16 17 16 19 0 28 -10 6 -18 14 -18 19 0 16 60 11 66 -4 6
-16 58 -31 73 -21 16 9 2 33 -25 39 -24 6 -29 21 -18 50 9 23 23 20 36 -9 6
-14 17 -25 25 -25 19 0 16 30 -4 46 -17 13 -17 13 0 14 10 0 17 8 17 20 0 11
7 20 15 20 8 0 15 5 15 10 0 6 7 10 15 10 8 0 24 5 35 12 25 16 33 7 21 -25
-8 -21 -6 -29 14 -49 49 -49 91 -73 100 -58 4 7 12 7 25 0 29 -15 100 -13 100
4 0 18 -42 29 -52 13 -10 -16 -22 -2 -14 18 4 11 13 14 31 9 14 -3 50 -3 81 1
55 7 55 7 37 27 -17 19 -17 20 6 39 13 10 33 19 44 19 19 0 19 1 4 13 -14 10
-16 21 -11 58 l6 47 36 -21 c19 -11 37 -29 40 -39 7 -28 75 -25 91 5 7 12 25
28 42 36 42 19 36 33 -7 15 -33 -14 -38 -14 -52 0 -15 14 -13 16 17 22 18 4
35 14 38 23 3 9 15 26 26 39 l20 22 -21 0 c-11 0 -25 7 -30 16 -6 11 -17 15
-31 11 -11 -3 -24 -1 -27 4 -3 5 -20 10 -37 10 -21 1 -25 3 -12 6 37 9 85 35
85 47 0 14 47 36 79 36 15 0 34 7 44 14 16 12 16 14 2 20 -9 3 -26 1 -37 -5
-11 -6 -22 -8 -26 -5 -9 10 31 35 56 36 12 0 22 5 22 11 0 5 5 7 10 4 17 -10
11 5 -10 27 -28 30 -25 64 10 123 23 38 30 45 30 28 0 -13 5 -23 10 -23 6 0
10 13 10 29 0 16 7 34 15 41 8 7 15 19 15 26 0 17 1 17 35 4 14 -5 23 -15 20
-20 -12 -20 14 -36 57 -35 36 1 43 4 48 25 l6 25 12 -22 c18 -32 29 -28 36 12
4 19 11 35 16 35 11 0 12 -5 12 -63 0 -20 5 -40 10 -43 14 -9 58 36 58 60 0
15 3 17 12 8 8 -8 8 -15 0 -24 -6 -8 -7 -19 -3 -27 6 -9 11 -10 15 -2 10 16
56 14 56 -3 0 -8 -6 -17 -12 -20 -7 -3 -2 -3 12 0 36 9 45 21 31 38 -10 12 -9
14 9 9 12 -3 27 -18 33 -32 15 -33 27 -42 50 -35 16 5 18 2 12 -18 -10 -33
-12 -33 -48 -20 -28 11 -34 10 -52 -8 -16 -17 -17 -22 -6 -29 9 -6 21 -1 35
13 l21 21 3 -32 c3 -34 18 -44 28 -18 4 9 17 15 33 14 14 -1 48 4 74 10 42 10
51 9 72 -6 13 -10 25 -21 25 -25 0 -5 7 -8 16 -8 8 0 12 -5 9 -11 -4 -5 1 -19
10 -29 10 -11 15 -26 12 -34 -8 -20 3 -28 20 -15 18 15 17 37 -3 41 -13 2 -12
7 7 28 13 15 20 18 16 8 -3 -9 0 -19 9 -22 16 -6 20 -46 4 -46 -5 0 -10 -8
-10 -19 0 -10 -13 -34 -30 -52 -16 -19 -30 -37 -30 -41 0 -12 25 -9 38 4 16
16 15 7 -4 -31 -9 -19 -22 -30 -29 -27 -8 3 -11 -2 -8 -13 3 -11 -5 -29 -20
-43 -13 -13 -26 -29 -28 -35 -11 -30 -192 -223 -209 -223 -8 0 -23 -30 -18
-35 2 -2 21 1 43 5 22 4 36 8 30 9 -20 3 21 21 47 21 15 0 30 5 34 11 4 6 20
8 40 5 23 -5 44 -1 71 14 26 14 47 18 66 14 22 -4 35 0 53 17 23 21 24 21 24
3 1 -19 1 -19 15 0 8 11 21 16 30 12 15 -5 23 -3 73 23 18 9 24 9 28 -3 5 -12
12 -11 41 6 33 20 37 20 84 6 47 -16 49 -15 49 3 0 20 35 26 123 20 28 -2 37
1 37 13 0 13 12 16 54 16 30 0 58 5 61 10 4 6 18 10 33 10 37 0 114 10 132 17
8 3 23 5 33 4 9 -1 17 3 17 8 0 6 5 11 10 11 6 0 10 -7 10 -15 0 -20 16 -19
24 1 3 8 10 13 15 9 5 -3 13 0 16 6 4 6 18 8 32 4 14 -3 31 -1 38 5 7 6 52 11
101 11 49 1 95 6 101 11 7 6 22 8 33 5 19 -5 89 14 124 34 12 7 21 7 25 1 7
-11 81 -12 81 -1 0 3 24 4 53 1 49 -4 51 -3 32 12 l-20 15 20 2 c11 1 35 1 53
0 17 -2 32 2 32 7 0 8 25 15 85 23 6 1 44 -2 87 -6 73 -7 77 -6 89 16 l12 23
8 -22 c8 -21 49 -32 49 -14 0 14 72 31 107 25 26 -4 34 0 49 22 11 17 24 25
35 22 10 -3 19 -1 21 5 2 5 16 3 32 -5 25 -14 30 -13 47 1 10 9 19 22 19 29 0
6 5 15 11 19 8 4 9 -1 4 -16 -7 -21 -5 -22 16 -15 13 4 47 9 74 10 28 2 58 4
67 5 9 1 19 8 22 16 6 16 56 20 56 4 0 -15 40 -12 46 3 3 9 31 14 95 15 50 1
99 7 110 13 11 5 72 14 135 19 63 6 124 14 134 20 10 5 29 10 42 10 13 0 32 6
43 14 11 7 54 16 95 20 41 4 76 10 78 15 2 5 20 7 40 4 20 -2 73 1 117 7 44 7
117 15 163 19 45 4 87 12 93 18 6 6 30 8 55 5 39 -4 45 -2 53 19 8 21 10 22
16 7 10 -24 48 -24 41 0 -3 9 -1 24 5 32 8 11 9 9 4 -10 -6 -20 -5 -23 6 -12
7 6 23 12 35 12 12 0 25 6 27 13 3 7 6 4 6 -6 1 -17 7 -18 59 -11 31 4 59 10
62 14 12 15 40 19 40 5 0 -8 5 -15 10 -15 6 0 10 5 10 10 0 6 5 10 11 10 7 0
17 7 24 16 10 14 15 14 32 3 18 -11 26 -11 50 1 15 8 46 15 68 16 99 7 138 12
144 21 10 17 74 41 124 48 39 5 53 3 68 -11 17 -15 19 -15 19 -1 0 23 101 54
132 40 18 -8 26 -7 36 3 7 8 29 14 48 14 24 0 33 4 28 11 -5 9 8 10 47 7 30
-3 48 -3 42 -1 -7 3 -13 11 -13 20 0 12 8 13 41 8 27 -5 50 -3 66 6 18 10 31
10 52 2 21 -8 35 -7 56 4 16 9 46 13 71 11 36 -3 45 0 55 19 12 23 38 38 48
28 5 -6 -13 -21 -32 -28 -11 -3 3 -37 15 -37 6 0 7 7 4 15 -3 9 1 18 9 21 13
5 15 328 15 2645 l0 2639 -12800 0 -12800 0 0 -4957z m19075 1442 c140 -25
253 -55 333 -86 406 -161 701 -422 878 -778 100 -202 142 -369 151 -600 6
-153 -8 -319 -33 -380 -8 -18 -14 -46 -14 -61 0 -15 -7 -33 -15 -40 -8 -7 -15
-21 -15 -31 0 -11 -5 -19 -10 -19 -6 0 -8 -11 -4 -25 8 -32 -15 -34 -35 -3
-12 19 -11 23 3 34 11 8 13 14 7 19 -6 3 -11 21 -11 40 0 21 -6 35 -16 39 -8
3 -12 10 -9 16 3 5 -5 14 -19 20 -14 5 -26 16 -26 25 0 18 21 20 38 3 21 -21
23 -1 4 33 -10 19 -17 40 -15 46 3 7 -2 16 -11 19 -24 9 -20 37 4 31 12 -3 20
0 20 7 0 13 -14 16 -68 16 -29 -1 -33 2 -32 22 4 39 1 48 -15 48 -17 0 -42 46
-31 57 3 4 12 1 18 -5 18 -18 28 -15 28 9 0 15 -6 20 -22 19 -39 -3 -49 0 -42
12 4 6 -1 17 -11 24 -10 7 -15 20 -12 28 4 9 2 18 -3 21 -6 4 -10 12 -10 20 0
15 -42 65 -54 65 -4 0 -4 -4 -1 -10 12 -20 -21 -9 -47 15 -15 14 -32 25 -38
25 -5 0 -10 5 -10 10 0 12 6 13 28 1 30 -15 74 -23 67 -11 -3 5 -15 10 -25 10
-11 0 -24 9 -30 20 -6 11 -16 17 -25 14 -8 -3 -26 7 -42 23 -46 47 -86 73
-111 73 -17 0 -23 5 -20 18 2 9 11 17 20 17 31 0 29 13 -4 36 -18 13 -36 24
-40 24 -3 0 -10 3 -14 8 -4 4 -14 7 -21 7 -20 0 -5 -20 23 -30 29 -11 32 -30
5 -30 -11 0 -29 12 -41 27 -19 24 -24 26 -42 14 -13 -8 -24 -9 -30 -3 -12 12
-1 35 13 27 5 -4 9 -1 9 4 0 7 26 11 65 11 41 0 65 4 65 11 0 6 -7 9 -14 6 -9
-4 -17 2 -21 14 -7 21 -20 25 -30 8 -5 -7 -25 -8 -59 -3 -28 4 -73 7 -101 8
-56 1 -115 31 -115 59 0 19 15 23 25 7 4 -6 23 -19 43 -29 27 -13 45 -16 67
-10 17 5 36 7 43 4 8 -3 12 6 12 26 0 22 5 32 20 36 11 3 20 12 20 19 0 8 7
14 15 14 9 0 12 6 9 15 -4 8 -1 21 5 29 11 13 5 26 -11 26 -5 0 -13 -11 -18
-25 -5 -14 -16 -25 -25 -25 -8 0 -17 11 -21 25 -4 17 -13 25 -28 25 -12 0 -29
8 -38 18 -48 51 -65 56 -104 33 -44 -26 -56 -26 -79 -1 -21 23 -13 39 10 20 9
-7 18 -10 21 -7 10 9 -6 27 -23 27 -9 0 -22 8 -29 17 -17 25 -27 11 -15 -20 6
-15 6 -29 2 -32 -10 -5 -33 18 -30 31 4 26 -2 36 -21 31 -12 -3 -34 5 -55 19
-19 13 -42 21 -50 18 -11 -5 -15 1 -15 19 0 14 -4 29 -10 32 -10 6 -14 45 -4
45 3 0 14 -5 25 -10 17 -10 19 -7 19 24 0 19 6 36 13 39 8 3 6 7 -5 11 -10 3
-26 9 -35 12 -23 9 -65 5 -77 -7 -15 -14 -36 -11 -36 6 0 8 5 15 10 15 16 0
12 14 -10 38 -17 17 -25 20 -40 12 -29 -15 -37 -12 -56 20 -14 23 -25 29 -49
29 -16 -1 -57 1 -91 4 -79 7 -92 -1 -71 -42 9 -19 12 -33 6 -37 -15 -9 -39 3
-39 20 0 21 -43 29 -57 10 -18 -25 -146 -20 -178 6 -12 10 -18 10 -30 0 -12
-10 -16 -9 -21 4 -5 12 -17 16 -45 14 -47 -2 -61 9 -35 28 14 10 17 17 9 25
-7 7 -15 6 -26 -5 -19 -20 -33 -20 -40 -2 -8 19 -65 44 -97 42 -14 0 -36 -11
-49 -23 -23 -21 -54 -25 -79 -9 -7 4 -24 1 -38 -9 -13 -8 -41 -16 -62 -16
-114 -1 -144 -8 -229 -48 -48 -23 -91 -48 -95 -54 -5 -7 -8 -2 -8 12 l0 24
-22 -20 c-31 -28 -68 -46 -68 -34 0 17 102 111 180 166 246 173 542 292 805
324 50 6 104 13 120 15 65 9 335 -3 420 -19z"/>
</g>
</svg>
